<svg width="253" height="40" viewBox="0 0 253 40" fill="none" xmlns="http://www.w3.org/2000/svg">
<path d="M73.4532 0V40H64.9825V0H73.4532Z" fill="black"/>
<path d="M169.487 40H178.611L180.643 32.5275H175.9V25.0824H182.668L186.454 11.1616L185.702 8.40659L184.589 0H182.435L169.487 40Z" fill="black"/>
<path d="M175.9 25.0824V32.5275H180.643L182.668 25.0824H175.9Z" fill="black"/>
<path d="M180.643 32.5275H192.28L190.25 25.0824H182.668L180.643 32.5275Z" fill="black"/>
<path d="M188.219 0H184.589L185.702 8.40659L186.454 11.1616L187.203 8.40659L188.219 0Z" fill="black"/>
<path fill-rule="evenodd" clip-rule="evenodd" d="M153.804 0H139.936V40H148.431V25.8791H153.005L159.225 40H168.325V39.5879L160.981 23.451C161.928 22.9334 162.787 22.3325 163.557 21.6484C164.687 20.641 165.566 19.3681 166.195 17.8297C166.825 16.2912 167.139 14.3773 167.139 12.0879C167.139 9.45055 166.591 7.23443 165.494 5.43956C164.412 3.64469 162.872 2.28938 160.871 1.37363C158.87 0.457875 156.515 0 153.804 0ZM145.236 25.8791H148.431V18.4341H153.804C154.885 18.4341 155.78 18.2143 156.49 17.7747C157.2 17.3352 157.733 16.7125 158.088 15.9066C158.459 15.0824 158.644 14.1026 158.644 12.967C158.644 11.8132 158.459 10.8242 158.088 10C157.717 9.17582 157.168 8.54396 156.442 8.1044C155.732 7.66484 154.853 7.44506 153.804 7.44506H148.431V18.4341H145.188L145.236 25.8791Z" fill="#E84601"/>
<path d="M145.188 18.4341L145.236 25.8791H148.431V18.4341H145.188Z" fill="#E84601"/>
<path fill-rule="evenodd" clip-rule="evenodd" d="M136.451 40V32.5824H120.696V23.0495H134.031V15.8791H120.696V7.44506H136.524V0H120.696V7.44506H117.67V0H112.201V40H117.67H120.696H136.451Z" fill="black"/>
<path d="M120.696 0H117.67V7.44506H120.696V0Z" fill="black"/>
<path fill-rule="evenodd" clip-rule="evenodd" d="M45.9597 0H32.0919V40H40.5868V25.8791H45.161L51.3809 40H60.4809V39.5879L53.1364 23.451C54.0841 22.9334 54.943 22.3325 55.7131 21.6484C56.8425 20.641 57.7219 19.3681 58.3511 17.8297C58.9804 16.2912 59.295 14.3773 59.295 12.0879C59.295 9.45055 58.7464 7.23443 57.6493 5.43956C56.5682 3.64469 55.0274 2.28938 53.0267 1.37363C51.026 0.457875 48.6703 0 45.9597 0ZM49.0333 25.8791H45.161L43.5879 22.3077L52.591 22.2527L53.1364 23.451C52.7141 23.6817 52.2741 23.8958 51.8166 24.0934L49.0333 25.8791ZM40.5868 18.4341H45.9597C47.0407 18.4341 47.9362 18.2143 48.6461 17.7747C49.356 17.3352 49.8885 16.7125 50.2434 15.9066C50.6145 15.0824 50.8001 14.1026 50.8001 12.967C50.8001 11.8132 50.6145 10.8242 50.2434 10C49.8723 9.17582 49.3237 8.54396 48.5977 8.1044C47.8878 7.66484 47.0084 7.44506 45.9597 7.44506H40.5868V18.4341Z" fill="black"/>
<path d="M49.0333 25.8791L51.8166 24.0934C52.2741 23.8958 52.7141 23.6817 53.1364 23.451L52.591 22.2527L43.5879 22.3077L45.161 25.8791H49.0333Z" fill="black"/>
<path fill-rule="evenodd" clip-rule="evenodd" d="M8.49492 40H11.4476C13.8032 40 15.9653 39.5421 17.9337 38.6264C19.9183 37.6923 21.6366 36.3736 23.0887 34.6703C24.5409 32.967 25.6622 30.9432 26.4528 28.5989C27.2596 26.2546 27.6629 23.6722 27.6629 20.8516V19.1758C27.6629 16.337 27.2596 13.7546 26.4528 11.4286C25.6622 9.08425 24.5328 7.06044 23.0645 5.35714C21.6124 3.63553 19.886 2.31685 17.8853 1.4011C15.9007 0.467033 13.7145 0 11.3266 0H8.49492V7.44506H3.48509V0H0V40H3.63031H8.49492ZM8.49492 32.5824V7.44506H11.3266C12.5689 7.44506 13.6661 7.69231 14.618 8.18681C15.5861 8.68132 16.3928 9.42308 17.0382 10.4121C17.6836 11.3828 18.1677 12.6007 18.4904 14.0659C18.8292 15.5128 18.9986 17.1978 18.9986 19.1209V20.8516C18.9986 23.4158 18.7001 25.5769 18.1031 27.3352C17.5223 29.0751 16.6671 30.3846 15.5377 31.2637C14.4244 32.1429 13.061 32.5824 11.4476 32.5824H8.49492Z" fill="black"/>
<path d="M3.48509 0V7.44506H8.49492V0H3.48509Z" fill="black"/>
<path fill-rule="evenodd" clip-rule="evenodd" d="M209.582 29.1641L209.243 30.5769L208.057 40H204.935L193.124 0H202.587L209.582 29.1641ZM211.155 40L209.92 30.5769L209.582 29.1641L216.576 0H226.087L214.204 40H211.155Z" fill="black"/>
<path d="M208.057 40H211.155L209.92 30.5769L209.582 29.1641L209.243 30.5769L208.057 40Z" fill="black"/>
<path fill-rule="evenodd" clip-rule="evenodd" d="M252.927 40V32.5824H237.172V23.0495H250.507V15.8791H237.172V7.44506H253V0H237.172V7.44506H234.147V0H228.677V40H234.147H237.172H252.927Z" fill="black"/>
<path d="M237.172 0H234.147V7.44506H237.172V0Z" fill="black"/>
<path fill-rule="evenodd" clip-rule="evenodd" d="M93.1052 29.1641L92.7664 30.5769L91.5805 40H88.4584L76.6479 0H86.1108L93.1052 29.1641ZM94.6784 40L93.4441 30.5769L93.1052 29.1641L100.1 0H109.611L97.7278 40H94.6784Z" fill="black"/>
<path d="M91.5805 40H94.6784L93.4441 30.5769L93.1052 29.1641L92.7664 30.5769L91.5805 40Z" fill="black"/>
</svg>
